<?xml version="1.0" standalone="no"?>
<!DOCTYPE svg PUBLIC "-//W3C//DTD SVG 20010904//EN"
 "http://www.w3.org/TR/2001/REC-SVG-20010904/DTD/svg10.dtd">
<svg version="1.0" xmlns="http://www.w3.org/2000/svg"
 width="797.000000pt" height="797.000000pt" viewBox="0 0 797.000000 797.000000"
 preserveAspectRatio="xMidYMid meet">
<metadata>
Created by potrace 1.11, written by Peter Selinger 2001-2013
</metadata>
<g transform="translate(0.000000,797.000000) scale(0.100000,-0.100000)"
fill="#000000" stroke="none">
<path d="M3902 7883 c-20 -21 -32 -31 -28 -23 4 8 -2 4 -13 -10 -11 -14 -21
-29 -21 -34 0 -5 -3 -6 -7 -3 -3 4 -14 -4 -23 -19 -10 -14 -21 -26 -26 -27 -5
-1 -9 -4 -9 -7 1 -3 -15 -21 -34 -40 -19 -19 -31 -28 -26 -20 12 21 2 11 -33
-33 -17 -21 -33 -38 -36 -38 -3 1 -7 -2 -7 -6 -1 -5 -10 -14 -19 -20 -12 -8
-16 -20 -13 -33 3 -12 8 -19 10 -16 8 7 53 -37 53 -51 0 -8 5 -11 10 -8 6 3
10 -2 10 -11 0 -10 3 -15 6 -11 9 8 94 -73 94 -90 0 -8 5 -11 10 -8 6 3 10 -2
10 -11 0 -10 3 -15 6 -11 8 8 84 -63 84 -79 0 -7 5 -16 12 -20 7 -5 8 -3 3 6
-5 9 -4 11 3 6 7 -4 12 -14 12 -23 0 -9 3 -14 6 -10 8 8 54 -34 54 -50 0 -8 5
-11 10 -8 6 3 10 -2 10 -11 0 -10 3 -14 6 -11 9 8 124 -103 124 -119 0 -7 5
-16 12 -20 7 -5 8 -3 3 6 -5 9 -4 11 3 6 7 -4 12 -14 12 -23 0 -9 3 -14 6 -10
9 8 94 -73 94 -90 0 -8 5 -11 10 -8 6 3 10 -2 10 -11 0 -10 3 -15 6 -11 8 8
84 -63 84 -79 0 -7 5 -16 12 -20 7 -5 8 -3 3 6 -5 9 -4 11 3 6 7 -4 12 -14 12
-23 0 -9 3 -14 6 -10 8 8 54 -34 54 -50 0 -8 4 -12 9 -9 10 7 72 -59 64 -68
-4 -3 1 -6 10 -6 9 0 19 -5 23 -12 5 -7 3 -8 -6 -3 -9 5 -11 4 -6 -3 4 -7 13
-12 20 -12 16 0 87 -76 79 -84 -4 -3 1 -6 11 -6 9 0 14 -4 11 -10 -3 -5 0 -10
8 -10 17 0 98 -85 90 -94 -4 -3 1 -6 10 -6 9 0 19 -5 23 -12 5 -7 3 -8 -6 -3
-9 5 -11 4 -6 -3 4 -7 13 -12 20 -12 16 0 127 -115 119 -124 -3 -3 1 -6 11 -6
9 0 14 -4 11 -10 -3 -5 0 -10 8 -10 16 0 58 -46 50 -54 -4 -3 1 -6 10 -6 9 0
19 -5 23 -12 5 -7 3 -8 -6 -3 -9 5 -11 4 -6 -3 4 -7 12 -12 19 -12 16 0 67
-51 67 -69 0 -8 3 -12 6 -8 9 8 94 -73 94 -90 0 -8 5 -11 10 -8 6 3 10 -2 10
-11 0 -10 3 -15 6 -11 8 8 84 -63 84 -79 0 -7 5 -16 12 -20 7 -5 8 -3 3 6 -5
9 -4 11 3 6 7 -4 12 -14 12 -22 0 -8 3 -13 8 -11 4 2 18 -7 32 -21 14 -13 19
-22 13 -18 -8 4 -13 1 -13 -8 0 -8 -9 -21 -20 -29 -11 -8 -17 -17 -13 -20 3
-4 1 -7 -5 -7 -6 0 -52 -42 -103 -92 -50 -51 -89 -87 -85 -80 4 6 5 12 1 12
-3 0 -10 -11 -15 -25 -5 -14 -17 -25 -25 -25 -9 0 -14 -3 -12 -7 2 -5 -4 -16
-15 -25 -10 -10 -18 -15 -18 -10 -1 4 -8 -5 -16 -20 -8 -16 -21 -28 -29 -28
-8 0 -30 -21 -50 -46 -19 -26 -35 -45 -35 -42 0 3 -58 -52 -129 -123 -71 -70
-132 -125 -135 -122 -3 4 -6 2 -6 -3 0 -6 -7 -19 -16 -30 -8 -10 -13 -12 -9
-4 4 9 0 7 -8 -3 -9 -10 -24 -25 -34 -34 -10 -8 -11 -11 -3 -7 8 5 -5 -12 -30
-37 -25 -24 -47 -45 -50 -45 -10 0 -87 -84 -82 -89 3 -3 0 -5 -7 -5 -7 0 -43
-31 -80 -70 -38 -38 -73 -70 -79 -70 -6 0 -14 -5 -18 -12 -5 -7 -3 -8 7 -3 8
5 5 -1 -5 -13 -21 -24 -32 -29 -20 -10 4 7 3 8 -4 4 -7 -4 -12 -13 -12 -20 0
-8 -15 -24 -34 -37 -19 -13 -34 -26 -33 -29 2 -3 -13 -21 -32 -40 -19 -19 -31
-28 -26 -20 4 8 -3 4 -17 -10 -13 -14 -23 -28 -21 -32 2 -5 0 -8 -5 -8 -5 0
-55 -45 -110 -100 -55 -55 -106 -100 -112 -100 -6 0 -8 -4 -5 -10 3 -5 -1 -10
-9 -10 -8 0 -18 -5 -22 -12 -5 -7 -2 -8 7 -3 8 4 3 -3 -11 -16 -14 -14 -27
-24 -29 -22 -3 2 -13 -9 -23 -24 -10 -16 -18 -23 -18 -18 0 6 -9 -4 -19 -22
-11 -17 -29 -34 -40 -38 -12 -3 -19 -11 -16 -16 4 -5 2 -9 -3 -9 -14 0 -62
-47 -55 -54 4 -3 2 -6 -4 -6 -6 0 -49 -38 -95 -85 -47 -47 -90 -85 -96 -85 -6
0 -14 -5 -18 -12 -5 -7 -2 -8 7 -3 8 5 3 -4 -10 -18 -14 -15 -31 -27 -38 -27
-8 0 -11 -4 -8 -10 3 -5 -1 -10 -10 -10 -9 0 -13 -4 -10 -10 3 -5 -1 -10 -9
-10 -8 0 -18 -5 -22 -12 -5 -7 -3 -8 6 -3 9 5 11 4 6 -3 -4 -7 -14 -12 -22
-12 -8 0 -14 -3 -12 -7 2 -5 -9 -20 -24 -35 -15 -15 -28 -24 -28 -21 0 3 -13
-11 -30 -32 -16 -21 -30 -35 -30 -33 0 3 -77 -71 -171 -164 -94 -94 -168 -164
-164 -157 4 8 -6 -2 -23 -21 -17 -19 -31 -39 -32 -43 0 -5 -4 -5 -10 -2 -5 3
-10 -1 -10 -10 0 -9 -4 -14 -9 -11 -5 3 -15 -2 -22 -11 -12 -14 -12 -16 1 -8
13 8 13 6 2 -8 -8 -9 -17 -16 -20 -15 -4 1 -45 -36 -91 -82 -46 -47 -88 -84
-93 -83 -4 2 -8 -3 -8 -10 0 -16 -44 -60 -52 -51 -4 3 -9 -4 -13 -15 -3 -12
-11 -19 -16 -16 -5 4 -9 -2 -9 -11 0 -10 -3 -14 -7 -11 -3 4 -19 -11 -36 -34
-16 -22 -31 -38 -34 -35 -6 5 -38 -25 -75 -73 -16 -18 -28 -32 -28 -29 0 3
-58 -53 -129 -124 -71 -70 -135 -128 -141 -128 -6 0 -8 -4 -5 -10 3 -5 -1 -10
-9 -10 -8 0 -18 -5 -22 -12 -5 -7 -2 -8 7 -3 8 4 3 -3 -11 -17 -14 -13 -28
-23 -32 -21 -5 2 -8 0 -8 -4 0 -5 -7 -18 -16 -29 -8 -10 -12 -13 -8 -5 5 9 3
12 -4 7 -7 -4 -12 -14 -12 -22 0 -8 -4 -13 -9 -10 -5 3 -11 -1 -15 -9 -3 -8 0
-15 6 -15 6 0 9 -2 6 -5 -3 -3 25 -37 63 -74 38 -38 69 -73 69 -79 0 -5 8 -16
17 -23 17 -13 17 -13 3 6 -14 19 -14 19 3 6 9 -7 17 -19 17 -27 0 -7 5 -16 12
-20 7 -5 8 -2 3 7 -4 8 1 5 12 -6 11 -11 19 -22 18 -25 -2 -3 12 -16 31 -30
18 -14 34 -28 34 -33 0 -4 22 -29 49 -56 27 -27 47 -52 44 -55 -4 -3 1 -6 10
-6 9 0 19 -5 23 -12 5 -7 3 -8 -6 -3 -9 5 -11 4 -6 -3 4 -7 13 -12 19 -12 7 0
21 -14 32 -30 11 -16 26 -30 34 -30 8 0 12 -3 9 -6 -4 -3 20 -31 53 -62 32
-31 59 -63 59 -70 0 -7 4 -11 9 -8 5 3 15 -2 22 -11 12 -14 12 -16 0 -8 -10 5
-12 4 -7 -3 4 -7 14 -12 22 -12 8 0 14 -6 14 -14 0 -8 9 -18 20 -21 11 -3 20
-10 20 -14 0 -4 37 -45 81 -89 45 -45 78 -82 73 -83 -5 0 2 -4 14 -10 13 -5
26 -18 29 -29 3 -11 8 -19 12 -17 3 2 20 -11 36 -27 17 -16 23 -25 15 -21 -8
5 15 -20 53 -56 37 -35 67 -70 67 -77 0 -7 3 -11 8 -9 8 5 82 -70 75 -77 -2
-2 5 -7 16 -11 12 -3 21 -10 21 -15 0 -4 25 -33 55 -63 30 -30 52 -57 48 -61
-3 -3 -1 -6 6 -6 11 0 65 -49 72 -67 2 -5 17 -18 33 -31 16 -12 26 -22 22 -22
-4 0 22 -29 58 -63 36 -35 66 -69 66 -75 0 -6 5 -14 12 -18 7 -4 8 -3 4 4 -4
7 -5 12 -2 12 3 0 17 -17 31 -37 14 -21 25 -34 25 -30 0 5 17 -12 39 -37 21
-24 59 -64 85 -89 25 -25 46 -50 46 -56 0 -5 5 -13 12 -17 7 -5 9 -2 4 7 -4 8
2 3 14 -11 67 -78 88 -98 94 -93 3 4 6 -1 6 -11 0 -9 10 -21 23 -26 12 -5 19
-9 15 -9 -3 -1 17 -25 45 -54 29 -29 58 -51 65 -49 7 2 37 28 66 58 30 29 57
50 60 47 3 -4 6 -1 6 5 0 13 40 57 40 45 1 -5 8 4 16 20 8 15 22 27 30 27 8 0
13 3 11 8 -2 4 4 15 15 24 10 10 18 16 18 13 0 -3 16 11 36 32 34 35 52 73 34
73 -10 0 -70 52 -70 61 0 4 -31 38 -70 76 -38 37 -70 74 -70 81 0 7 -4 10 -10
7 -5 -3 -10 1 -10 10 0 9 -3 15 -7 13 -5 -2 -24 12 -43 31 -19 19 -28 31 -20
27 8 -4 4 2 -10 13 -14 11 -28 21 -32 21 -5 0 -8 6 -8 13 0 6 -23 32 -50 57
-28 24 -50 51 -50 59 0 8 -3 12 -6 9 -3 -3 -20 10 -37 29 -18 19 -68 71 -113
116 -44 45 -83 90 -87 100 -3 9 -13 17 -21 17 -8 0 -18 5 -22 12 -5 7 -2 9 7
4 8 -4 5 0 -5 8 -11 9 -22 16 -25 16 -3 0 -15 14 -26 30 -11 16 -26 30 -32 30
-7 0 -13 5 -13 10 0 6 -30 40 -67 76 -38 36 -67 70 -66 74 2 5 -6 12 -17 15
-11 4 -18 11 -15 16 4 5 -1 9 -9 9 -9 0 -24 12 -33 27 -10 15 -44 52 -75 83
-32 30 -58 60 -58 67 0 7 -4 12 -9 10 -5 -1 -10 3 -11 8 0 6 -12 16 -26 23
-13 7 -24 19 -24 27 0 7 -5 17 -12 21 -7 5 -8 3 -3 -6 5 -9 4 -11 -3 -6 -7 4
-12 12 -12 18 0 6 -39 50 -87 97 -49 46 -77 76 -63 65 l25 -19 -19 23 c-11 12
-23 22 -27 22 -12 0 -69 60 -69 72 0 5 -4 6 -10 3 -5 -3 -10 -2 -10 4 0 5 -39
49 -87 97 -49 48 -82 84 -75 80 27 -16 10 3 -20 22 l-32 20 146 146 c80 80
151 146 158 146 6 0 9 3 7 7 -2 5 7 18 20 30 13 12 23 20 23 18 0 -3 8 3 18
13 11 9 18 19 17 22 -1 3 6 13 17 22 10 10 18 16 18 14 0 -2 19 15 43 38 23
22 41 44 39 49 -2 4 1 7 6 7 5 0 39 29 74 65 36 36 70 65 76 65 6 0 14 5 18
12 5 7 3 8 -7 3 -8 -5 -1 5 16 23 32 35 46 43 24 15 -13 -16 -12 -17 4 -4 9 7
17 20 17 27 0 8 7 14 16 14 8 0 14 3 12 8 -2 4 11 21 29 39 18 17 33 30 33 28
0 -2 17 13 38 34 21 20 36 39 34 44 -2 4 1 7 6 7 5 0 51 42 102 92 51 51 96
93 100 93 5 0 12 4 17 9 5 6 2 6 -7 1 -8 -5 11 17 43 48 31 31 61 57 67 57 5
0 10 4 10 9 0 5 14 24 32 42 17 19 28 27 23 19 -5 -8 14 10 43 40 29 30 52 59
52 64 0 5 3 7 6 4 3 -3 39 29 81 71 42 42 79 75 84 74 4 -1 13 5 21 15 12 16
11 16 -7 2 -15 -11 -14 -7 4 13 25 28 38 36 25 15 -4 -7 -3 -8 4 -4 7 4 12 13
12 20 0 17 35 48 43 39 4 -3 7 -2 7 3 0 5 10 20 21 34 11 14 18 18 14 10 -6
-14 2 -6 46 50 11 14 18 20 15 14 -3 -6 53 47 124 119 72 71 130 125 130 121
1 -5 8 4 16 19 8 15 19 25 24 22 5 -3 11 3 15 14 3 11 22 32 42 48 56 44 79
65 63 57 -13 -6 -13 -5 0 7 8 8 20 21 28 29 10 11 12 11 6 1 -5 -9 -3 -12 4
-7 7 4 12 14 12 23 0 9 2 14 5 11 3 -2 54 44 114 104 60 59 114 108 119 108 6
0 14 5 18 12 5 7 2 9 -7 3 -8 -4 5 11 29 34 24 23 47 41 53 41 6 0 9 3 7 8 -5
9 49 61 56 54 4 -3 6 2 6 11 0 9 5 19 12 23 7 5 8 2 3 -7 -11 -19 -3 -11 39
39 20 24 36 41 36 39 0 -3 66 60 148 141 81 81 161 158 177 170 17 13 23 20
15 16 -8 -4 5 11 30 34 25 23 48 41 53 42 4 0 7 7 7 16 0 8 3 13 8 11 4 -2 15
4 25 15 9 10 14 18 11 18 -4 0 6 10 22 22 16 13 59 54 96 92 37 39 68 66 68
60 0 -5 9 6 20 24 11 17 22 32 25 32 4 0 3 -5 -1 -12 -4 -7 -3 -8 4 -4 7 4 12
14 12 22 0 8 5 12 10 9 6 -3 10 2 10 11 0 10 3 14 6 11 4 -4 20 10 35 30 16
20 44 47 61 60 18 12 28 23 22 23 -5 0 -3 4 5 9 8 5 16 17 17 25 1 9 -1 14 -5
11 -11 -6 -63 50 -54 58 3 4 -1 7 -10 7 -9 0 -17 6 -17 14 0 8 -5 18 -12 22
-7 5 -9 2 -4 -7 9 -16 -21 16 -47 52 -10 13 -15 17 -11 9 7 -13 5 -13 -9 -1
-9 7 -14 17 -11 22 3 5 -2 9 -10 9 -8 0 -18 9 -21 20 -4 11 -10 18 -15 15 -4
-3 -14 3 -21 12 -10 12 -10 14 -1 9 6 -4 12 -5 12 -3 0 3 -16 14 -36 26 -19
12 -32 26 -29 31 3 6 -1 10 -9 10 -9 0 -16 6 -16 14 0 8 -5 18 -12 22 -7 5 -8
3 -3 -7 8 -12 6 -12 -8 0 -9 7 -14 17 -11 22 3 5 0 8 -8 7 -7 -2 -12 3 -10 10
1 6 -5 12 -13 12 -8 0 -15 6 -15 14 0 8 -5 18 -12 22 -7 5 -9 2 -4 -7 9 -16
-21 16 -47 52 -10 13 -15 17 -11 9 7 -13 5 -13 -9 -1 -9 7 -14 17 -11 22 3 5
-2 9 -10 9 -8 0 -18 9 -21 20 -4 11 -10 18 -15 15 -4 -3 -14 3 -21 12 -10 12
-10 14 -1 9 6 -4 12 -5 12 -3 0 3 -16 14 -36 26 -19 12 -32 26 -29 31 3 6 -1
10 -9 10 -9 0 -16 6 -16 14 0 8 -5 18 -12 22 -7 5 -8 3 -3 -7 8 -12 6 -12 -8
-1 -9 8 -19 22 -22 33 -4 11 -10 17 -15 14 -4 -3 -14 3 -21 12 -10 12 -10 14
-1 9 6 -4 12 -5 12 -3 0 3 -16 14 -36 26 -19 12 -32 26 -29 31 3 6 -1 10 -9
10 -9 0 -16 6 -16 14 0 8 -5 18 -12 22 -7 5 -8 3 -3 -7 8 -12 6 -12 -8 0 -9 7
-14 17 -11 22 3 5 0 8 -8 7 -7 -2 -12 3 -10 10 1 6 -5 12 -13 12 -8 0 -15 6
-15 14 0 8 -5 18 -12 22 -7 4 -8 3 -4 -4 12 -20 2 -13 -29 20 -17 18 -24 28
-16 23 10 -5 12 -4 7 3 -4 7 -14 12 -22 12 -8 0 -14 7 -14 16 0 8 -4 12 -10 9
-5 -3 -19 10 -31 29 -12 20 -23 36 -26 36 -2 0 -1 -6 3 -12 5 -9 3 -9 -9 1 -9
7 -15 17 -12 21 3 5 -4 11 -15 15 -11 3 -20 13 -20 21 0 8 -4 13 -9 10 -5 -3
-15 2 -22 11 -12 14 -12 16 1 9 8 -4 4 1 -9 11 -36 26 -68 56 -52 47 9 -5 12
-3 7 4 -4 7 -14 12 -22 12 -8 0 -14 7 -14 16 0 8 -4 12 -10 9 -5 -3 -19 10
-31 29 -12 20 -23 36 -26 36 -2 0 -1 -6 3 -12 5 -9 3 -9 -9 1 -9 7 -15 17 -12
21 3 5 -3 11 -14 15 -11 3 -25 13 -33 22 -11 14 -11 16 1 8 10 -5 12 -4 7 3
-4 7 -14 12 -22 12 -8 0 -14 7 -14 15 0 8 -6 14 -12 12 -7 -1 -12 4 -10 11 1
8 -2 11 -7 8 -5 -3 -15 2 -22 11 -12 14 -12 16 0 8 10 -5 12 -4 7 3 -4 7 -14
12 -22 12 -8 0 -14 7 -14 16 0 8 -4 12 -10 9 -5 -3 -19 10 -31 29 -12 20 -23
36 -26 36 -2 0 -1 -6 3 -12 5 -9 3 -9 -9 1 -9 7 -15 17 -12 21 3 5 -4 11 -15
15 -11 3 -20 13 -20 21 0 8 -4 13 -9 10 -5 -3 -15 2 -22 11 -12 14 -12 16 1 9
8 -4 4 1 -9 11 -36 26 -68 56 -52 47 9 -5 12 -3 7 4 -4 7 -14 12 -22 12 -8 0
-14 7 -14 15 0 8 -6 14 -12 13 -7 -2 -12 3 -10 10 1 8 -2 11 -7 8 -5 -3 -15 2
-22 11 -12 14 -12 16 0 8 10 -5 12 -4 7 3 -4 7 -14 12 -22 12 -8 0 -14 7 -14
16 0 8 -4 12 -10 9 -5 -3 -19 10 -31 29 -12 20 -23 36 -26 36 -2 0 -1 -6 3
-12 5 -9 3 -9 -9 1 -9 7 -15 17 -12 21 3 5 -3 11 -14 15 -11 3 -25 13 -33 22
-11 14 -11 16 1 8 10 -5 12 -4 7 3 -4 7 -14 12 -22 12 -8 0 -14 7 -14 16 0 8
-4 12 -10 9 -5 -3 -19 10 -31 29 -12 20 -23 36 -26 36 -2 0 -1 -6 3 -12 5 -9
3 -9 -9 1 -9 7 -15 17 -12 21 3 5 -4 11 -15 15 -11 3 -20 13 -20 21 0 8 -4 13
-9 10 -5 -3 -15 2 -22 11 -12 14 -12 16 1 9 8 -4 4 1 -9 11 -36 26 -68 56 -52
47 9 -5 12 -3 7 4 -13 21 -38 13 -74 -25z m1148 -2507 c0 -2 -8 -10 -17 -17
-16 -13 -17 -12 -4 4 13 16 21 21 21 13z"/>
<path d="M3720 7446 c0 -2 8 -10 18 -17 15 -13 16 -12 3 4 -13 16 -21 21 -21
13z"/>
<path d="M3840 7326 c0 -2 8 -10 18 -17 15 -13 16 -12 3 4 -13 16 -21 21 -21
13z"/>
<path d="M3254 7178 c-3 -10 -12 -18 -20 -18 -8 0 -13 -3 -11 -7 2 -5 -7 -18
-20 -30 -13 -12 -23 -19 -23 -15 0 4 -8 -5 -18 -21 -10 -15 -22 -24 -25 -20
-4 3 -7 -1 -7 -10 0 -8 -9 -19 -20 -22 -11 -4 -19 -9 -17 -13 5 -10 -30 -42
-37 -34 -3 3 -6 -2 -6 -11 0 -8 -9 -19 -20 -22 -11 -4 -19 -9 -17 -13 2 -4
-13 -24 -35 -46 -21 -21 -38 -35 -38 -30 0 5 -11 -8 -25 -29 -14 -20 -33 -37
-41 -37 -8 0 -13 -3 -11 -7 6 -9 -69 -83 -76 -76 -3 2 -8 -5 -12 -16 -3 -12
-13 -21 -21 -21 -8 0 -13 -3 -11 -7 2 -5 -7 -18 -20 -30 -13 -12 -23 -19 -23
-15 0 4 -8 -5 -18 -21 -10 -15 -22 -24 -25 -20 -4 3 -7 -1 -7 -10 0 -8 -9 -19
-20 -22 -11 -4 -18 -10 -15 -15 3 -5 -13 -23 -36 -40 -23 -16 -39 -30 -34 -30
4 0 -10 -17 -31 -38 -22 -22 -42 -37 -46 -35 -4 2 -9 -6 -13 -17 -3 -11 -13
-20 -21 -20 -8 0 -13 -3 -11 -7 2 -5 -7 -18 -20 -30 -13 -12 -23 -19 -23 -15
0 4 -8 -5 -18 -21 -10 -15 -22 -24 -25 -20 -4 3 -7 -1 -7 -10 0 -8 -9 -18 -20
-22 -11 -3 -19 -10 -17 -15 1 -5 -15 -24 -35 -43 -21 -19 -38 -32 -38 -28 0 3
-8 -6 -18 -22 -10 -15 -22 -24 -25 -20 -4 3 -7 -1 -7 -10 0 -8 -9 -19 -20 -22
-11 -4 -18 -10 -15 -15 3 -5 -13 -23 -36 -40 -23 -16 -39 -30 -34 -30 4 0 -10
-17 -31 -38 -22 -22 -42 -37 -46 -35 -4 2 -9 -6 -13 -17 -3 -11 -13 -20 -21
-20 -8 0 -13 -3 -11 -7 4 -10 -40 -53 -47 -45 -3 3 -6 -2 -6 -11 0 -8 -13 -25
-28 -36 -28 -19 -40 -52 -18 -48 6 1 10 -4 8 -10 -1 -7 4 -13 11 -13 13 0 52
-40 39 -41 -4 0 3 -4 16 -9 12 -5 27 -21 32 -35 5 -14 12 -25 15 -25 4 0 3 5
-1 12 -4 7 -3 8 4 4 7 -4 12 -13 12 -21 0 -8 5 -17 12 -21 7 -5 8 -3 3 6 -5 9
-4 11 3 6 7 -4 12 -14 12 -23 0 -9 3 -14 6 -10 8 8 44 -25 44 -40 0 -7 6 -12
13 -11 6 2 11 -3 9 -9 -1 -7 4 -13 11 -13 14 0 62 -50 49 -51 -4 0 4 -4 16
-10 13 -5 26 -18 29 -29 3 -11 9 -17 14 -14 5 3 9 -2 9 -11 0 -9 3 -14 8 -12
4 3 16 -5 27 -16 11 -11 14 -16 6 -12 -9 5 -12 4 -7 -3 4 -7 13 -12 21 -12 8
0 17 -5 21 -12 5 -7 3 -8 -6 -3 -9 5 -11 4 -6 -3 4 -7 13 -12 20 -12 15 0 57
-46 49 -54 -4 -3 1 -6 11 -6 9 0 15 -4 12 -9 -3 -5 3 -11 14 -14 11 -3 24 -16
29 -29 6 -12 10 -20 10 -16 1 14 51 -35 51 -49 0 -8 5 -11 10 -8 6 3 10 -2 10
-11 0 -10 3 -15 6 -11 8 8 44 -25 44 -41 0 -7 4 -11 9 -8 5 3 15 -2 22 -11 12
-14 12 -16 0 -8 -10 5 -12 4 -7 -3 4 -7 13 -12 21 -12 8 0 17 -5 21 -12 5 -7
3 -8 -6 -3 -9 5 -11 4 -6 -3 4 -7 13 -12 20 -12 15 0 57 -46 49 -54 -4 -3 1
-6 11 -6 9 0 15 -4 12 -9 -3 -5 3 -11 14 -14 11 -3 24 -16 29 -29 6 -12 10
-20 10 -16 1 14 51 -35 51 -49 0 -8 3 -12 8 -10 9 6 33 -19 25 -27 -4 -3 1 -6
11 -6 9 0 15 -4 12 -9 -3 -5 3 -11 14 -14 11 -3 24 -16 29 -29 6 -12 10 -20
10 -16 1 13 51 -35 51 -49 0 -7 6 -12 13 -11 6 2 11 -3 9 -9 -1 -7 4 -13 11
-13 15 0 48 -36 40 -44 -4 -3 1 -6 10 -6 9 0 19 -5 23 -12 5 -7 3 -8 -6 -3 -9
5 -11 4 -6 -3 4 -7 13 -12 21 -12 8 0 17 -5 21 -12 5 -7 3 -8 -6 -3 -9 5 -11
4 -6 -3 4 -7 13 -12 20 -12 17 0 48 -35 39 -43 -3 -4 0 -7 8 -7 15 0 55 -39
41 -41 -4 0 3 -4 16 -9 12 -5 27 -21 32 -35 5 -14 12 -25 15 -25 4 0 3 6 0 13
-4 6 2 2 12 -11 16 -20 23 -22 46 -13 15 6 27 13 27 16 0 4 -5 3 -12 -1 -7 -4
-8 -3 -4 4 4 7 13 12 21 12 8 0 17 5 21 12 5 7 3 8 -7 3 -12 -8 -12 -6 0 8 7
9 17 14 22 11 5 -3 9 1 9 9 0 8 10 22 23 33 l22 19 -20 -25 c-17 -22 -18 -23
-1 -10 10 8 22 25 27 37 5 13 20 28 34 33 14 5 25 12 25 15 0 4 -5 3 -12 -1
-7 -4 -8 -3 -4 4 4 7 13 12 21 12 8 0 17 5 21 12 5 7 3 8 -7 3 -12 -8 -12 -6
0 8 7 9 17 14 22 11 5 -3 9 1 9 9 0 8 10 22 23 33 l22 19 -20 -25 c-17 -22
-18 -23 -1 -10 10 8 22 24 27 37 5 13 15 23 24 23 19 0 15 21 -7 38 -10 7 -18
20 -18 28 0 8 -4 14 -8 14 -5 0 -31 21 -58 46 -27 25 -43 43 -35 38 9 -5 12
-3 7 4 -4 7 -12 12 -18 12 -6 0 -31 21 -57 47 -25 25 -39 43 -31 39 8 -4 4 1
-10 11 -36 27 -87 77 -70 69 8 -4 6 0 -4 8 -11 9 -23 16 -28 16 -4 0 -8 7 -8
15 0 8 -4 15 -9 15 -11 0 -80 67 -99 95 -7 11 -10 13 -6 5 4 -8 -14 6 -39 31
-26 26 -47 51 -47 57 0 6 -5 14 -12 18 -7 5 -9 2 -4 -7 5 -8 -13 8 -38 35 -25
27 -46 53 -46 58 0 4 -7 8 -15 8 -8 0 -15 4 -15 8 0 5 -7 17 -16 28 -8 10 -12
12 -8 4 4 -9 -2 -7 -13 5 -11 11 -19 23 -16 28 2 4 -3 7 -11 7 -9 0 -16 7 -16
16 0 8 -4 13 -9 10 -5 -3 -15 2 -22 11 -12 14 -12 16 1 9 8 -4 6 0 -4 8 -11 9
-23 16 -28 16 -4 0 -8 6 -8 14 0 8 -8 16 -17 18 -10 2 389 3 886 3 496 0 906
2 911 5 4 3 7 113 6 245 l-1 240 -895 0 c-589 0 -895 3 -896 10 -1 6 10 21 24
35 14 14 22 18 18 10 -4 -8 -1 -7 6 4 32 46 50 66 56 62 10 -5 32 20 25 28 -4
3 1 6 10 6 9 0 16 6 14 13 -1 6 4 11 11 9 8 -1 11 1 8 6 -3 5 7 20 22 33 l27
24 -20 -25 -20 -25 23 19 c12 11 22 25 22 33 0 8 5 11 10 8 6 -3 10 0 10 8 0
8 10 22 22 33 15 12 19 14 13 4 -14 -22 16 13 38 45 11 15 21 24 25 21 3 -3
10 4 17 17 6 12 17 21 23 20 7 -2 12 5 12 14 0 9 3 14 6 10 8 -7 33 16 28 25
-3 4 7 15 21 25 32 22 67 52 45 38 -10 -6 -8 -2 4 13 11 12 25 22 33 22 8 0
11 5 8 10 -3 6 0 10 8 10 8 0 22 10 33 23 l19 22 -25 -20 -25 -20 24 27 c13
15 28 25 33 22 5 -3 7 0 6 8 -2 7 3 12 10 10 6 -1 12 5 12 14 0 8 3 13 8 11 8
-6 33 19 30 30 -1 5 12 18 30 29 17 12 29 24 27 26 -3 3 5 13 17 24 15 12 19
14 13 4 -14 -22 16 13 38 45 10 14 22 23 28 20 5 -4 9 -3 10 2 0 4 2 16 4 25
2 10 -2 21 -7 25 -7 4 -8 1 -3 -7 5 -9 4 -11 -3 -6 -7 4 -12 14 -12 22 0 8 -4
12 -10 9 -5 -3 -10 -2 -10 4 0 14 -78 90 -85 83 -3 -3 -5 2 -5 12 0 9 -4 14
-10 11 -5 -3 -10 1 -10 9 0 8 -5 18 -12 22 -7 5 -8 3 -3 -6 5 -9 4 -11 -3 -6
-7 4 -12 14 -12 22 0 8 -4 12 -10 9 -5 -3 -10 -2 -10 4 0 6 -16 26 -35 45 -19
20 -35 33 -35 31 0 -2 -10 6 -23 18 -13 12 -22 25 -20 29 2 5 -7 7 -21 6 -15
-1 -29 -10 -32 -20z"/>
<path d="M4040 7126 c0 -2 8 -10 18 -17 15 -13 16 -12 3 4 -13 16 -21 21 -21
13z"/>
<path d="M4080 7086 c0 -2 8 -10 18 -17 15 -13 16 -12 3 4 -13 16 -21 21 -21
13z"/>
<path d="M4200 6966 c0 -2 8 -10 18 -17 15 -13 16 -12 3 4 -13 16 -21 21 -21
13z"/>
<path d="M4320 6846 c0 -2 8 -10 18 -17 15 -13 16 -12 3 4 -13 16 -21 21 -21
13z"/>
<path d="M4490 6676 c0 -2 8 -10 18 -17 15 -13 16 -12 3 4 -13 16 -21 21 -21
13z"/>
<path d="M4610 6556 c0 -2 8 -10 18 -17 15 -13 16 -12 3 4 -13 16 -21 21 -21
13z"/>
<path d="M4730 6436 c0 -2 8 -10 18 -17 15 -13 16 -12 3 4 -13 16 -21 21 -21
13z"/>
<path d="M4850 6316 c0 -2 8 -10 18 -17 15 -13 16 -12 3 4 -13 16 -21 21 -21
13z"/>
<path d="M4890 6276 c0 -2 8 -10 18 -17 15 -13 16 -12 3 4 -13 16 -21 21 -21
13z"/>
<path d="M5090 6076 c0 -2 8 -10 18 -17 15 -13 16 -12 3 4 -13 16 -21 21 -21
13z"/>
<path d="M5160 6006 c0 -2 8 -10 18 -17 15 -13 16 -12 3 4 -13 16 -21 21 -21
13z"/>
<path d="M5280 5886 c0 -2 8 -10 18 -17 15 -13 16 -12 3 4 -13 16 -21 21 -21
13z"/>
<path d="M6070 5806 c0 -2 8 -10 18 -17 15 -13 16 -12 3 4 -13 16 -21 21 -21
13z"/>
<path d="M5499 5133 c-13 -16 -12 -17 4 -4 9 7 17 15 17 17 0 8 -8 3 -21 -13z"/>
<path d="M4563 3675 c1 -5 -4 -9 -10 -7 -7 1 -13 -3 -13 -8 0 -6 -14 -24 -30
-40 -17 -17 -28 -30 -25 -30 6 0 -36 -39 -70 -66 -11 -8 -13 -12 -5 -8 8 4
-17 -25 -57 -64 -39 -40 -68 -72 -65 -72 4 0 -3 -7 -15 -15 -12 -8 -21 -24
-20 -35 1 -10 3 -17 5 -15 4 4 73 -59 199 -182 30 -29 56 -53 58 -53 8 0 55
-51 55 -60 0 -5 5 -12 12 -16 7 -5 8 -3 3 6 -5 9 -4 11 3 6 7 -4 12 -14 12
-22 0 -8 4 -13 8 -10 5 3 32 -20 61 -50 29 -29 61 -59 72 -64 10 -6 19 -18 19
-27 0 -9 3 -13 7 -10 3 4 28 -16 55 -43 26 -27 48 -46 48 -42 0 4 9 -6 19 -21
10 -16 22 -27 26 -25 3 2 12 -7 18 -19 7 -12 16 -22 20 -22 4 0 24 -16 45 -35
20 -20 48 -45 62 -56 14 -12 19 -19 13 -15 -7 3 -13 4 -13 0 0 -3 12 -10 26
-15 14 -6 22 -14 19 -20 -3 -5 0 -10 7 -10 8 0 20 -8 29 -18 14 -17 -23 -17
-836 -17 l-850 0 0 -245 0 -245 848 0 c466 0 847 -4 847 -8 0 -5 -9 -11 -20
-14 -11 -3 -17 -9 -14 -14 3 -5 -2 -9 -10 -9 -8 0 -18 -5 -22 -12 -5 -7 -2 -8
7 -3 8 4 3 -3 -11 -17 -14 -13 -28 -23 -32 -21 -5 2 -8 -4 -8 -13 0 -10 -3
-15 -6 -11 -4 3 -22 -12 -42 -33 -19 -22 -38 -37 -43 -35 -4 3 -11 0 -15 -6
-5 -8 -2 -10 7 -5 8 4 6 1 -4 -7 -10 -9 -25 -24 -34 -34 -8 -10 -11 -11 -7 -3
4 8 -28 -23 -71 -68 -44 -45 -86 -82 -94 -82 -8 0 -11 -3 -8 -6 4 -4 -9 -19
-28 -34 -19 -15 -32 -29 -30 -32 2 -2 -14 -16 -37 -31 -23 -15 -38 -27 -33
-27 4 0 -8 -16 -28 -35 -20 -19 -39 -35 -42 -35 -3 0 -39 -33 -79 -74 -41 -41
-77 -72 -80 -68 -3 3 -6 -3 -6 -13 0 -10 -3 -16 -6 -13 -3 3 -25 -14 -48 -38
-24 -24 -45 -41 -48 -39 -3 3 -5 -3 -5 -13 0 -9 12 -28 26 -41 14 -13 20 -20
12 -16 -9 6 -12 4 -7 -3 4 -7 14 -12 23 -12 9 0 14 -3 11 -6 -4 -3 8 -19 25
-36 18 -16 32 -34 32 -38 0 -5 4 -12 9 -17 5 -5 6 -3 2 5 -16 28 6 9 24 -20
11 -18 20 -30 20 -25 0 4 17 -12 38 -35 78 -88 139 -140 130 -111 -2 5 -1 8 2
9 3 0 32 28 64 62 33 33 64 60 70 59 5 -1 10 3 11 10 0 7 29 38 65 70 36 32
80 73 98 92 17 19 32 31 32 28 0 -3 11 5 25 19 14 14 25 29 25 34 0 6 5 10 10
10 6 0 27 18 47 40 20 21 40 37 45 34 4 -3 8 2 8 11 0 9 4 14 9 10 5 -3 13 4
16 16 4 11 9 18 12 16 2 -3 23 15 46 39 23 24 48 44 56 44 8 0 12 3 9 6 -8 7
36 54 51 54 6 0 11 4 11 8 0 5 7 17 16 28 8 10 12 12 8 4 -3 -8 12 5 34 30 23
25 42 41 42 35 0 -5 8 3 16 18 8 15 19 25 24 22 6 -4 10 -2 10 2 0 5 7 18 16
29 8 10 12 13 8 5 -5 -9 -3 -12 4 -7 7 4 12 14 12 23 0 9 3 14 6 11 3 -4 19 8
36 25 17 18 34 31 39 29 5 -1 9 4 9 12 0 8 5 18 12 22 7 5 8 3 3 -6 -5 -9 -4
-11 3 -6 7 4 12 13 12 21 0 8 5 17 12 21 7 4 8 3 4 -5 -4 -7 28 24 72 69 43
44 85 80 91 80 7 0 10 3 8 8 -3 4 1 13 9 20 8 7 14 9 14 5 0 -4 9 6 20 22 11
17 20 26 20 21 0 -5 16 8 36 30 20 21 33 33 29 25 -5 -9 -4 -12 3 -7 7 4 12
14 12 22 0 8 5 12 10 9 6 -3 10 2 10 11 0 10 2 15 5 12 4 -3 28 17 56 46 27
28 55 51 62 51 6 0 12 6 12 13 0 7 5 16 10 20 13 9 19 35 6 28 -5 -4 -12 3
-16 14 -4 11 -10 18 -15 15 -5 -3 -19 8 -31 24 -12 17 -26 28 -30 25 -4 -2
-11 5 -14 17 -4 11 -9 18 -12 16 -6 -6 -53 41 -53 53 0 5 -5 12 -12 16 -7 5
-8 2 -3 -7 4 -8 -9 3 -29 24 -20 20 -40 37 -46 37 -5 0 -10 6 -10 13 0 8 -9
22 -20 32 -11 10 -20 15 -20 10 0 -4 -30 22 -67 59 -131 129 -235 226 -242
226 -4 0 -14 11 -21 25 -7 14 -15 23 -18 20 -3 -2 -36 27 -73 64 -38 38 -69
67 -69 65 0 -2 -31 28 -69 65 -38 38 -72 66 -75 63 -3 -3 -6 -1 -6 4 0 6 -7
19 -16 30 -8 10 -12 12 -8 4 4 -8 -3 -5 -15 7 -11 12 -21 27 -21 33 0 5 -4 9
-8 8 -4 -2 -37 25 -72 60 -35 34 -67 62 -72 62 -4 0 -8 6 -8 14 0 8 -5 18 -12
22 -7 5 -8 3 -3 -7 5 -8 -12 7 -37 34 -25 26 -48 47 -51 47 -10 0 -65 59 -59
65 3 3 -2 5 -11 5 -9 0 -23 12 -31 28 -8 15 -15 23 -16 18 0 -5 -17 7 -37 26
-21 20 -54 51 -73 68 -19 18 -26 26 -15 19 18 -13 19 -12 7 3 -14 18 -52 21
-49 3z"/>
<path d="M2889 3283 c-13 -16 -12 -17 4 -4 9 7 17 15 17 17 0 8 -8 3 -21 -13z"/>
<path d="M2489 2893 c-13 -16 -12 -17 4 -4 9 7 17 15 17 17 0 8 -8 3 -21 -13z"/>
<path d="M5760 2586 c0 -2 8 -10 18 -17 15 -13 16 -12 3 4 -13 16 -21 21 -21
13z"/>
<path d="M2610 2136 c0 -2 8 -10 18 -17 15 -13 16 -12 3 4 -13 16 -21 21 -21
13z"/>
<path d="M4754 1618 l-19 -23 23 19 c12 11 22 21 22 23 0 8 -8 2 -26 -19z"/>
<path d="M3310 1406 c0 -2 8 -10 18 -17 15 -13 16 -12 3 4 -13 16 -21 21 -21
13z"/>
</g>
</svg>
