<?xml version="1.0" encoding="utf-8"?>
<!-- Generator: Adobe Illustrator 25.1.0, SVG Export Plug-In . SVG Version: 6.00 Build 0)  -->
<svg version="1.1" id="Layer_1" xmlns="http://www.w3.org/2000/svg" xmlns:xlink="http://www.w3.org/1999/xlink" x="0px" y="0px"
	 viewBox="0 0 404.6 123.48" style="enable-background:new 0 0 404.6 123.48;" xml:space="preserve">
<style type="text/css">
	.st0{clip-path:url(#SVGID_2_);fill:none;stroke:#8D9092;stroke-width:4;stroke-miterlimit:10;}
	.st1{clip-path:url(#SVGID_2_);}
	.st2{fill:#8D9092;}
	.st3{fill:#CC6F6A;}
	.st4{clip-path:url(#SVGID_2_);fill:none;stroke:#FFFFFF;stroke-width:4;stroke-linecap:round;stroke-miterlimit:10;}
	.st5{clip-path:url(#SVGID_2_);fill:#CC6F6A;}
	.st6{clip-path:url(#SVGID_2_);fill:#FFFFFF;}
	.st7{clip-path:url(#SVGID_2_);fill:#8D9092;}
	.st8{clip-path:url(#SVGID_2_);fill:none;stroke:#FFFFFF;stroke-width:2.77;stroke-linecap:round;stroke-miterlimit:10;}
</style>
<g>
	<defs>
		<rect id="SVGID_1_" x="-31.77" y="-16.04" width="604.7" height="198.33"/>
	</defs>
	<clipPath id="SVGID_2_">
		<use xlink:href="#SVGID_1_"  style="overflow:visible;"/>
	</clipPath>
	<line class="st0" x1="58.24" y1="9.09" x2="46.74" y2="48.88"/>
	<line class="st0" x1="128.23" y1="80.68" x2="101.73" y2="77.99"/>
	<line class="st0" x1="125.02" y1="18.51" x2="100.73" y2="48.88"/>
	<line class="st0" x1="14.48" y1="113.67" x2="28.55" y2="93.51"/>
	<line class="st0" x1="10.26" y1="41.32" x2="27.57" y2="56.44"/>
	<g class="st1">
		<path class="st2" d="M154.2,50.2V3.15h6.26v23.14L179.5,3.15h6.71l-18.44,22.44l21.71,24.61h-8.46l-20.57-23.84V50.2H154.2z"/>
		<path class="st2" d="M195.65,9.41V3.15h6.26v6.26H195.65z M195.65,50.2V15.67h6.26V50.2H195.65z"/>
		<path class="st2" d="M235.33,50.2v-6.49c-2.54,4.85-6.38,7.28-11.51,7.28c-4.15,0-7.42-1.52-9.81-4.55
			c-2.38-3.03-3.58-7.17-3.58-12.43c0-5.74,1.35-10.36,4.05-13.86s6.26-5.25,10.67-5.25c4.09,0,7.48,1.57,10.17,4.7V0h6.29v50.2
			H235.33z M235.33,23.91c-3.24-2.86-6.32-4.29-9.22-4.29c-2.86,0-5.08,1.2-6.64,3.59c-1.57,2.4-2.35,5.79-2.35,10.17
			c0,8.07,2.67,12.11,8.01,12.11c3.48,0,6.88-1.9,10.2-5.69V23.91z"/>
		<path class="st2" d="M252.85,50.2V15.67h6.26v6.49c3.31-4.83,7.35-7.25,12.14-7.25c2.99,0,5.37,0.95,7.15,2.85
			c1.78,1.9,2.67,4.45,2.67,7.65v24.8h-6.26V27.43c0-2.56-0.38-4.39-1.13-5.48c-0.75-1.09-2-1.64-3.74-1.64
			c-3.84,0-7.45,2.51-10.84,7.53V50.2H252.85z"/>
		<path class="st2" d="M317.32,49.08c-4.2,1.27-7.79,1.91-10.78,1.91c-5.09,0-9.24-1.69-12.45-5.07c-3.21-3.38-4.82-7.76-4.82-13.15
			c0-5.23,1.42-9.53,4.24-12.88c2.83-3.35,6.45-5.02,10.86-5.02c4.17,0,7.4,1.48,9.68,4.45c2.28,2.97,3.42,7.18,3.42,12.65
			l-0.03,1.94h-21.78c0.91,8.2,4.93,12.3,12.05,12.3c2.61,0,5.81-0.7,9.6-2.1V49.08z M295.96,29.21h15.23
			c0-6.42-2.39-9.63-7.18-9.63C299.19,19.58,296.51,22.79,295.96,29.21z"/>
		<path class="st2" d="M328.99,62.75l5.59-12.56l-13.35-34.52H328l9.89,26l10.55-26h5.91L335.5,62.75H328.99z"/>
	</g>
	<g class="st1">
		<path class="st3" d="M154.02,119.9V75.95h8.05l20.37,30.02V75.95h7.33v43.94h-8.2l-20.22-30.02v30.02H154.02z"/>
		<path class="st3" d="M226.14,118.8c-4.18,1.23-8.14,1.84-11.88,1.84c-5.44,0-9.74-1.54-12.89-4.63s-4.72-7.3-4.72-12.65
			c0-5.05,1.44-9.11,4.32-12.19c2.88-3.08,6.69-4.62,11.42-4.62c4.77,0,8.25,1.5,10.45,4.51s3.3,7.77,3.3,14.28h-20.22
			c0.59,6.22,4.01,9.32,10.24,9.32c2.95,0,6.27-0.68,9.98-2.05V118.8z M205.8,100.39h11.7c0-5.56-1.79-8.34-5.37-8.34
			C208.49,92.04,206.38,94.83,205.8,100.39z"/>
		<path class="st3" d="M250.88,119.72c-2.1,0.61-3.75,0.92-4.96,0.92c-3.98,0-6.88-0.85-8.7-2.55c-1.82-1.7-2.73-4.41-2.73-8.14
			V92.79h-3.65v-5.49h3.65V81.8l8.79-1.01v6.5h6.98v5.49h-6.98v16c0,4,1.63,6,4.9,6c0.75,0,1.65-0.14,2.7-0.42V119.72z"/>
		<path class="st3" d="M263.26,119.9l-9.06-32.6h8.17l6.41,22.83l6.83-22.83h7.6l6.15,22.95l6.92-22.95h6.12l-9.68,32.6h-8.43
			l-5.94-22.36l-6.65,22.36H263.26z"/>
		<path class="st3" d="M322.5,120.64c-5.09,0-9.13-1.54-12.13-4.62c-3-3.08-4.5-7.22-4.5-12.43c0-5.27,1.51-9.42,4.53-12.47
			c3.02-3.05,7.12-4.57,12.31-4.57c5.21,0,9.32,1.53,12.34,4.57c3.02,3.05,4.53,7.19,4.53,12.41c0,5.34-1.51,9.53-4.54,12.56
			C332,119.12,327.82,120.64,322.5,120.64z M322.65,115.15c2.38,0,4.23-1.02,5.57-3.07c1.34-2.05,2-4.89,2-8.54
			c0-3.54-0.67-6.34-2-8.4c-1.34-2.06-3.17-3.09-5.51-3.09c-2.32,0-4.14,1.03-5.48,3.09c-1.34,2.06-2,4.88-2,8.46
			c0,3.54,0.66,6.35,1.99,8.43C318.54,114.11,320.35,115.15,322.65,115.15z"/>
		<path class="st3" d="M346.49,119.9v-32.6h8.79v6.15c2.28-4.59,5.74-6.89,10.39-6.89c0.55,0,1.1,0.06,1.63,0.18v7.84
			c-1.25-0.46-2.41-0.68-3.47-0.68c-3.5,0-6.35,1.77-8.55,5.32v20.7H346.49z"/>
		<path class="st3" d="M372.98,119.9V73.01h8.79v29.48h0.56l11.61-15.2h7.3l-10.72,13.96l14.07,18.65h-10.69l-11.58-16.3h-0.56v16.3
			H372.98z"/>
	</g>
	<path class="st4" d="M46.74,112.26c-10.02-6.18-13.14-19.31-6.96-29.32"/>
	<path class="st5" d="M134.81,18.51c0,5.4-4.38,9.78-9.78,9.78s-9.78-4.38-9.78-9.78s4.38-9.78,9.78-9.78S134.81,13.1,134.81,18.51"
		/>
	<path class="st5" d="M20.05,41.32c0,5.4-4.38,9.78-9.78,9.78c-5.4,0-9.78-4.38-9.78-9.78s4.38-9.78,9.78-9.78
		C15.66,31.54,20.05,35.92,20.05,41.32"/>
	<path class="st6" d="M15.1,41.32c0,2.67-2.16,4.83-4.83,4.83c-2.67,0-4.83-2.16-4.83-4.83c0-2.67,2.16-4.83,4.83-4.83
		C12.93,36.49,15.1,38.65,15.1,41.32"/>
	<path class="st6" d="M129.86,18.51c0,2.67-2.16,4.83-4.83,4.83c-2.67,0-4.83-2.16-4.83-4.83c0-2.67,2.16-4.83,4.83-4.83
		C127.69,13.67,129.86,15.84,129.86,18.51"/>
	<path class="st7" d="M64.45,9.09c0,3.43-2.78,6.21-6.21,6.21s-6.21-2.78-6.21-6.21c0-3.43,2.78-6.21,6.21-6.21
		S64.45,5.66,64.45,9.09"/>
	<path class="st7" d="M20.69,113.67c0,3.43-2.78,6.21-6.21,6.21s-6.21-2.78-6.21-6.21s2.78-6.21,6.21-6.21
		S20.69,110.24,20.69,113.67"/>
	<path class="st5" d="M134.44,80.68c0,3.43-2.78,6.21-6.21,6.21c-3.43,0-6.21-2.78-6.21-6.21s2.78-6.21,6.21-6.21
		C131.66,74.47,134.44,77.25,134.44,80.68"/>
	<path class="st5" d="M55.99,124.97l0-42.89c0-2.01-0.64-2.65-2.65-2.66l-1.71,0c0.12,1.11,0.23,2.16,0.46,3.15
		c1.11,4.72,0.32,9.53-2.23,13.54c-2.46,3.88-6.29,6.54-10.79,7.5c-1.23,0.26-2.46,0.39-3.65,0.39c-4.41,0-8.67-1.79-12.67-5.32
		c-4.61-4.07-7.41-9.56-8.34-16.32c-1.91-13.9,2.05-26.04,11.76-36.07c4.31-4.45,9.34-7.19,14.93-8.12
		c1.42-0.24,2.81-0.36,4.12-0.36c5.37,0,9.85,2,13.3,5.93c5.93,6.76,5.23,17.11-1.59,23.55c-0.7,0.66-1.34,1.4-1.99,2.17
		c0.44,0.04,0.89,0.09,1.34,0.17c5.51,0.97,9.69,5.83,9.71,11.31c0.05,10.22,0.04,20.61,0.03,30.66L66,123.17
		c0,0.21-0.04,0.38-0.06,0.48l-0.23,1.22l-1.26,0.09H55.99z"/>
	<path class="st6" d="M45.22,39.32c4.64,0,8.81,1.59,12.18,5.42c5.41,6.16,4.64,15.67-1.5,21.47c-1.39,1.31-2.55,2.87-3.81,4.32
		l0.25,0.28c1.23,0.1,2.47,0.11,3.67,0.32c4.7,0.83,8.45,5.07,8.47,9.83c0.06,14.07,0.02,28.14,0.02,42.21
		c0,0.07-0.02,0.14-0.05,0.29h-6.96v-1.26c0-13.38,0-26.75,0-40.13c0-2.85-1.31-4.15-4.15-4.16c-0.38,0-0.76,0-1.15,0
		c-0.67,0-1.39,0-2.24,0c0.23,1.73,0.31,3.4,0.69,5c2.05,8.74-3.2,17.38-11.87,19.22c-1.15,0.24-2.26,0.36-3.34,0.36
		c-4.39,0-8.25-1.91-11.68-4.94c-4.62-4.07-7.03-9.43-7.85-15.4c-1.84-13.39,1.92-25.09,11.35-34.82c3.87-3.99,8.55-6.76,14.1-7.69
		C42.66,39.44,43.96,39.32,45.22,39.32 M45.22,36.32L45.22,36.32c-1.4,0-2.86,0.13-4.37,0.38c-5.92,0.99-11.22,3.87-15.76,8.56
		C15.03,55.63,10.94,68.19,12.92,82.57c0.98,7.13,3.95,12.93,8.84,17.24c4.28,3.78,8.88,5.7,13.67,5.7c1.31,0,2.64-0.14,3.97-0.43
		c4.89-1.04,9.06-3.94,11.74-8.16c2.76-4.35,3.62-9.57,2.42-14.68c-0.1-0.42-0.17-0.86-0.24-1.31h0.02c0.64,0,0.93,0.1,1.01,0.14
		c0.04,0.09,0.14,0.38,0.14,1.02l0,30.43v9.7v1.26v3h3h6.96h2.49l0.46-2.45c0.04-0.18,0.1-0.47,0.1-0.85c0-3.83,0-7.66,0.01-11.49
		c0.01-10.07,0.02-20.49-0.03-30.73c-0.03-5.74-4.07-10.88-9.62-12.47c0.03-0.03,0.06-0.06,0.09-0.08c7.42-7,8.16-18.26,1.69-25.63
		C55.9,38.49,51.04,36.32,45.22,36.32"/>
	<path class="st7" d="M66.13,124.98V82.13c0-7.26,4.65-12.25,11.67-12.69c-0.3-0.31-0.65-0.57-1.06-0.89
		c-0.4-0.31-0.83-0.64-1.28-1.05c-2.79-2.54-4.62-5.69-5.43-9.36c-1.03-4.63-0.03-9.48,2.72-13.3c2.77-3.84,7.08-6.32,11.83-6.81
		c0.87-0.09,1.74-0.13,2.6-0.13c5.99,0,11.46,2.13,16.71,6.53c7.17,5.99,11.78,14.16,13.68,24.26c1.46,7.74,0.76,14.94-2.07,21.4
		c-3,6.84-7.74,11.27-14.1,13.16c-1.63,0.48-3.28,0.73-4.93,0.73c-5.13,0-9.93-2.35-13.18-6.44c-3.3-4.16-4.49-9.57-3.25-14.84
		c0.2-0.86,0.31-1.77,0.42-2.72l0.07-0.54c-0.37,0-0.72-0.01-1.08-0.01c-0.49,0-0.97,0.01-1.45,0.03c-1.02,0.05-1.79,0.86-1.83,1.93
		c-0.03,0.8-0.02,1.61-0.01,2.41l0,1.05l0,40.15H66.13z"/>
	<path class="st6" d="M87.18,39.39c5.96,0,11.13,2.32,15.75,6.18c7.32,6.12,11.42,14.12,13.17,23.39
		c1.32,7.01,0.93,13.91-1.97,20.52c-2.61,5.97-6.76,10.43-13.16,12.32c-1.52,0.45-3.04,0.66-4.5,0.66
		c-9.64,0-17.37-9.16-14.97-19.44c0.28-1.2,0.39-2.45,0.55-3.68c0.06-0.42,0.01-0.86,0.01-1.42c-0.93,0-1.79-0.02-2.61-0.02
		c-0.51,0-1.02,0.01-1.52,0.03c-1.8,0.09-3.19,1.55-3.25,3.38c-0.04,1.17-0.01,2.34-0.01,3.51c0,12.5,0,25.01,0,37.51v1.14h-7.02
		v-1.32V82.13c0-6.77,4.42-11.21,11.16-11.23c0.33,0,0.66-1,1.18-1c-0.93-1.8-2.1-2.24-3.49-3.52c-2.56-2.33-4.23-5.18-4.98-8.57
		c-1.97-8.88,4.2-17.36,13.25-18.29C85.57,39.43,86.38,39.39,87.18,39.39 M87.18,36.39c-0.9,0-1.83,0.05-2.75,0.14
		c-5.18,0.53-9.88,3.24-12.9,7.43c-3,4.16-4.09,9.45-2.97,14.5c0.87,3.93,2.82,7.31,5.79,10.05c-5.89,1.71-9.72,6.83-9.72,13.62
		v30.33v9.71v1.32v3h3h7.02h3v-3v-1.14v-11.79l0-25.72c0-0.35,0-0.71-0.01-1.06c-0.01-0.81-0.01-1.58,0.01-2.34
		c0.01-0.23,0.14-0.47,0.4-0.49c0.23-0.01,0.48-0.02,0.76-0.03c-0.07,0.5-0.15,0.97-0.25,1.43c-1.34,5.72-0.05,11.6,3.54,16.11
		c3.53,4.45,8.76,7.01,14.35,7.01c1.79,0,3.59-0.26,5.36-0.79c6.8-2.02,11.87-6.73,15.05-13.99c2.95-6.75,3.68-14.24,2.17-22.28
		c-1.97-10.45-6.75-18.91-14.19-25.13C99.39,38.71,93.45,36.39,87.18,36.39"/>
	<path class="st8" d="M92.94,55.35c-0.33,8.14-7.2,14.48-15.34,14.15"/>
	<path class="st8" d="M92.94,55.36c-0.33,8.14-7.2,14.48-15.34,14.15"/>
	<path class="st8" d="M92.94,55.43c-0.33,8.14-7.2,14.48-15.34,14.15"/>
	<path class="st8" d="M77.63,79.57c8.02-1.47,15.7,3.84,17.18,11.85"/>
	<path class="st8" d="M77.63,79.45c8.02-1.47,15.7,3.84,17.17,11.85"/>
	<path class="st8" d="M34.85,93.47c0.33-8.14,7.2-14.48,15.34-14.15"/>
	<path class="st8" d="M54.47,69.32c-8.1,0.92-15.4-4.91-16.32-13"/>
</g>
<g>
	<path d="M-219.85-21.79h1.04v7.21h3.45v0.88h-4.5V-21.79z"/>
	<path d="M-209.14-16.66c0,2.15-1.49,3.08-2.89,3.08c-1.57,0-2.78-1.15-2.78-2.99c0-1.94,1.27-3.08,2.88-3.08
		C-210.27-19.64-209.14-18.43-209.14-16.66z M-213.75-16.6c0,1.27,0.73,2.23,1.76,2.23c1.01,0,1.76-0.95,1.76-2.25
		c0-0.98-0.49-2.23-1.74-2.23C-213.21-18.85-213.75-17.7-213.75-16.6z"/>
	<path d="M-207.81-17.7c0-0.68-0.01-1.27-0.05-1.81h0.92l0.04,1.14h0.05c0.26-0.78,0.9-1.27,1.61-1.27c0.12,0,0.2,0.01,0.3,0.04v1
		c-0.11-0.02-0.22-0.04-0.36-0.04c-0.74,0-1.27,0.56-1.42,1.36c-0.02,0.14-0.05,0.31-0.05,0.49v3.09h-1.04V-17.7z"/>
	<path d="M-203.41-16.42c0.02,1.43,0.94,2.01,1.99,2.01c0.76,0,1.21-0.13,1.61-0.3l0.18,0.76c-0.37,0.17-1.01,0.36-1.93,0.36
		c-1.79,0-2.85-1.18-2.85-2.93s1.03-3.13,2.72-3.13c1.9,0,2.4,1.67,2.4,2.73c0,0.22-0.02,0.38-0.04,0.49H-203.41z M-200.32-17.17
		c0.01-0.67-0.28-1.71-1.46-1.71c-1.07,0-1.54,0.98-1.62,1.71H-200.32z"/>
	<path d="M-197.99-17.94c0-0.6-0.01-1.09-0.05-1.57h0.92l0.05,0.94h0.04c0.32-0.55,0.86-1.07,1.82-1.07c0.79,0,1.39,0.48,1.64,1.16
		h0.02c0.18-0.32,0.41-0.58,0.65-0.76c0.35-0.26,0.73-0.41,1.28-0.41c0.77,0,1.91,0.5,1.91,2.52v3.42h-1.03v-3.29
		c0-1.12-0.41-1.79-1.26-1.79c-0.6,0-1.07,0.44-1.25,0.96c-0.05,0.14-0.08,0.34-0.08,0.53v3.59h-1.03v-3.48
		c0-0.92-0.41-1.6-1.21-1.6c-0.66,0-1.14,0.53-1.31,1.06c-0.06,0.16-0.08,0.34-0.08,0.52v3.5h-1.03V-17.94z"/>
	<path d="M-184.26-21.14c0.01,0.36-0.25,0.65-0.67,0.65c-0.37,0-0.64-0.29-0.64-0.65c0-0.37,0.28-0.66,0.66-0.66
		C-184.52-21.8-184.26-21.51-184.26-21.14z M-185.44-13.71v-5.8h1.06v5.8H-185.44z"/>
	<path d="M-182.63-17.62c0-0.74-0.02-1.34-0.05-1.9h0.95l0.05,1h0.02c0.43-0.71,1.12-1.13,2.06-1.13c1.4,0,2.46,1.19,2.46,2.95
		c0,2.09-1.27,3.12-2.64,3.12c-0.77,0-1.44-0.34-1.79-0.91h-0.02v3.15h-1.04V-17.62z M-181.59-16.07c0,0.16,0.02,0.3,0.05,0.43
		c0.19,0.73,0.83,1.24,1.58,1.24c1.12,0,1.76-0.91,1.76-2.24c0-1.16-0.61-2.16-1.73-2.16c-0.72,0-1.39,0.52-1.6,1.31
		c-0.04,0.13-0.07,0.29-0.07,0.43V-16.07z"/>
	<path d="M-175.95-14.79c0.31,0.2,0.86,0.42,1.39,0.42c0.77,0,1.13-0.38,1.13-0.86c0-0.5-0.3-0.78-1.08-1.07
		c-1.04-0.37-1.54-0.95-1.54-1.64c0-0.94,0.76-1.7,2-1.7c0.59,0,1.1,0.17,1.43,0.36l-0.26,0.77c-0.23-0.14-0.65-0.34-1.19-0.34
		c-0.62,0-0.97,0.36-0.97,0.79c0,0.48,0.35,0.7,1.1,0.98c1.01,0.38,1.52,0.89,1.52,1.75c0,1.02-0.79,1.74-2.17,1.74
		c-0.64,0-1.22-0.16-1.63-0.4L-175.95-14.79z"/>
	<path d="M-166.19-15.29c0,0.6,0.01,1.13,0.05,1.58h-0.94l-0.06-0.95h-0.02c-0.28,0.47-0.89,1.08-1.92,1.08c-0.91,0-2-0.5-2-2.54
		v-3.39h1.06v3.21c0,1.1,0.34,1.85,1.3,1.85c0.71,0,1.2-0.49,1.39-0.96c0.06-0.16,0.1-0.35,0.1-0.54v-3.56h1.06V-15.29z"/>
	<path d="M-164.44-17.94c0-0.6-0.01-1.09-0.05-1.57h0.92l0.05,0.94h0.04c0.32-0.55,0.86-1.07,1.82-1.07c0.79,0,1.39,0.48,1.64,1.16
		h0.02c0.18-0.32,0.41-0.58,0.65-0.76c0.35-0.26,0.73-0.41,1.28-0.41c0.77,0,1.91,0.5,1.91,2.52v3.42h-1.03v-3.29
		c0-1.12-0.41-1.79-1.26-1.79c-0.6,0-1.07,0.44-1.25,0.96c-0.05,0.14-0.08,0.34-0.08,0.53v3.59h-1.03v-3.48
		c0-0.92-0.41-1.6-1.21-1.6c-0.66,0-1.14,0.53-1.31,1.06c-0.06,0.16-0.08,0.34-0.08,0.52v3.5h-1.03V-17.94z"/>
</g>
</svg>
